<svg width="70" height="70" viewBox="0 0 70 70" fill="none" xmlns="http://www.w3.org/2000/svg">
<circle cx="35" cy="35" r="35" fill="#898989"/>
<path d="M46.9268 54H22.5615V49.166L34.0605 36.9102C35.6393 35.1849 36.8031 33.6794 37.5518 32.3936C38.3167 31.1077 38.6992 29.887 38.6992 28.7314C38.6992 27.1527 38.3005 25.9157 37.5029 25.0205C36.7054 24.109 35.5661 23.6533 34.085 23.6533C32.4899 23.6533 31.2285 24.2067 30.3008 25.3135C29.3893 26.404 28.9336 27.8444 28.9336 29.6348H21.8535C21.8535 27.4701 22.3662 25.4925 23.3916 23.7021C24.4333 21.9118 25.8981 20.512 27.7861 19.5029C29.6742 18.4775 31.8145 17.9648 34.207 17.9648C37.8691 17.9648 40.7093 18.8438 42.7275 20.6016C44.762 22.3594 45.7793 24.8415 45.7793 28.0479C45.7793 29.8057 45.3236 31.596 44.4121 33.4189C43.5007 35.2419 41.9382 37.3659 39.7246 39.791L31.6436 48.3115H46.9268V54Z" fill="white"/>
</svg>
