<svg width="70" height="70" viewBox="0 0 70 70" fill="none" xmlns="http://www.w3.org/2000/svg">
<circle cx="35" cy="35" r="35" fill="#898989"/>
<path d="M29.7393 33.1016H33.499C35.2894 33.1016 36.6159 32.654 37.4785 31.7588C38.3411 30.8636 38.7725 29.6755 38.7725 28.1943C38.7725 26.762 38.3411 25.6471 37.4785 24.8496C36.6322 24.0521 35.4603 23.6533 33.9629 23.6533C32.612 23.6533 31.4808 24.0277 30.5693 24.7764C29.6579 25.5088 29.2021 26.4691 29.2021 27.6572H22.1465C22.1465 25.8018 22.6429 24.1416 23.6357 22.6768C24.6449 21.1956 26.0446 20.04 27.835 19.21C29.6416 18.3799 31.6273 17.9648 33.792 17.9648C37.5518 17.9648 40.4977 18.8682 42.6299 20.6748C44.762 22.4652 45.8281 24.9391 45.8281 28.0967C45.8281 29.7243 45.3317 31.2217 44.3389 32.5889C43.346 33.9561 42.0439 35.0059 40.4326 35.7383C42.4346 36.4544 43.9238 37.5286 44.9004 38.9609C45.8932 40.3932 46.3896 42.0859 46.3896 44.0391C46.3896 47.1966 45.234 49.7275 42.9229 51.6318C40.6279 53.5361 37.5843 54.4883 33.792 54.4883C30.2438 54.4883 27.3385 53.5524 25.0762 51.6807C22.8301 49.8089 21.707 47.335 21.707 44.2588H28.7627C28.7627 45.5934 29.2591 46.6839 30.252 47.5303C31.2611 48.3766 32.498 48.7998 33.9629 48.7998C35.6393 48.7998 36.9495 48.3604 37.8936 47.4814C38.8538 46.5863 39.334 45.4062 39.334 43.9414C39.334 40.3932 37.3809 38.6191 33.4746 38.6191H29.7393V33.1016Z" fill="white"/>
</svg>
