<svg width="89" height="84" viewBox="0 0 89 84" fill="none" xmlns="http://www.w3.org/2000/svg">
<path d="M81.5002 12.4L39.1002 51.1L23.7002 34.3C22.2002 32.7 19.7002 32.6 18.0002 34C16.4002 35.5 16.3002 38 17.7002 39.7L35.8002 59.5C36.6002 60.4 37.7002 60.8 38.8002 60.8C39.8002 60.8 40.7002 60.5 41.5002 59.8L86.9002 18.3C88.5002 16.8 88.6002 14.3 87.2002 12.6C85.7002 11 83.2002 10.9 81.5002 12.4Z" fill="#5AF233"/>
<path d="M42 84C65.2 84 84 65.2 84 42C84 40 83.9 38.1 83.6 36.2C83.3 34 81.3 32.5 79.1 32.8C76.9 33.1 75.4 35.1 75.7 37.3C75.9 38.9 76 40.5 76 42C76 60.7 60.7 76 42 76C23.3 76 8 60.7 8 42C8 23.3 23.3 8 42 8C50 8 57.8 10.8 63.9 16C65.6 17.4 68.1 17.2 69.5 15.5C70.9 13.8 70.7 11.3 69 9.9C61.5 3.5 51.9 0 42 0C18.8 0 0 18.8 0 42C0 65.2 18.8 84 42 84Z" fill="#5AF233"/>
</svg>
