<svg width="201" height="201" viewBox="0 0 201 201" fill="none" xmlns="http://www.w3.org/2000/svg">
<path d="M75 70.6001C75 71.8924 75.3136 72.1386 76.8189 72.1386C80.3941 72.1386 80.7704 72.9386 88.1716 98.2924C91.9976 111.462 95.6982 124.139 96.3882 126.415C97.5799 130.354 97.768 130.6 99.4615 130.6C100.528 130.6 101.343 130.292 101.343 129.923C101.343 128.2 119.031 74.9078 119.909 73.9232C120.473 73.3078 121.916 72.6309 123.17 72.3232C124.864 71.9539 125.491 71.4616 125.491 70.6001C125.491 69.4309 125.052 69.3693 117.337 69.3693C109.622 69.3693 109.183 69.4309 109.183 70.6001C109.183 71.4616 109.811 71.9539 111.567 72.3232C113.511 72.8155 113.888 73.1232 113.888 74.477C113.888 76.2616 101.908 115.215 101.343 115.215C101.155 115.215 98.3953 105.923 95.1337 94.477C89.4888 74.7847 89.3006 73.7386 90.3669 72.9386C91.0568 72.5078 92.2485 72.1386 93.0639 72.1386C94.2556 72.1386 94.5065 71.8309 94.3183 70.7232C94.1302 69.3693 93.942 69.3693 84.5964 69.1847L75 69.0001V70.6001Z" fill="black"/>
<path d="M94.4438 83.2155C94.4438 84.2616 94.8829 84.4463 97.2663 84.4463H100.089V95.5232V106.6H101.657H103.225V95.5232V84.4463H106.047C108.431 84.4463 108.87 84.2616 108.87 83.2155C108.87 82.0463 108.431 81.9847 101.657 81.9847C94.8829 81.9847 94.4438 82.0463 94.4438 83.2155Z" fill="black"/>
<path fill-rule="evenodd" clip-rule="evenodd" d="M1.72957 81.5953C-8.44497 135.879 27.3121 188.132 81.5953 198.306C135.879 208.481 188.132 172.724 198.306 118.441C208.481 64.1574 172.724 11.9041 118.441 1.72957C64.1574 -8.44497 11.9041 27.3121 1.72957 81.5953ZM100.017 175.018C141.439 175.018 175.017 141.44 175.017 100.018C175.017 58.5968 141.439 25.0182 100.017 25.0182C58.596 25.0182 25.0173 58.5968 25.0173 100.018C25.0173 141.44 58.596 175.018 100.017 175.018Z" fill="#234D8B"/>
<path fill-rule="evenodd" clip-rule="evenodd" d="M13.542 49.7449C34.217 14.1827 75.6995 -6.28155 118.44 1.72957C151.699 7.96344 178.004 29.9934 191.05 58.6081C186.102 65.0464 179.273 70.8387 170.994 75.7209C160.899 46.2246 132.935 25.0182 100.017 25.0182C69.1019 25.0182 42.5555 43.7233 31.0779 70.4334C23.1077 64.4133 17.0704 57.3998 13.542 49.7449Z" fill="#FF6363"/>
</svg>
