<svg width="315" height="305" viewBox="0 0 315 305" fill="none" xmlns="http://www.w3.org/2000/svg">
    <path d="M311.485 263.967L221.595 71.4337C220.549 68.3937 217.414 66.3671 214.278 65.3538C211.142 64.3404 206.961 65.3538 204.871 68.3937L71.0815 198.1C68.991 200.127 67.9458 204.18 67.9458 207.22C68.991 210.26 71.0815 213.3 74.2172 214.314L272.811 301.46C276.992 303.487 281.173 304.5 286.399 304.5C295.806 304.5 305.213 299.433 310.439 292.34C315.665 284.233 315.665 274.1 311.485 263.967ZM168.288 232.553L241.454 161.62L269.675 220.394L229.957 258.9L168.288 232.553ZM208.007 93.727L231.002 143.38L147.383 224.447L96.167 202.154L208.007 93.727ZM292.67 281.193C290.58 284.233 286.399 285.247 282.218 283.22L249.816 269.033L278.037 241.673L292.67 273.087C293.716 276.127 293.716 279.167 292.67 281.193Z"
          fill="#234D8B"/>
    <g id="surprise">
        <path d="M136.929 122.1C139.019 122.1 140.065 122.1 142.155 121.087C147.381 118.047 149.472 111.967 146.336 106.9C133.793 84.6066 132.748 61.3 144.245 43.06C152.607 29.8867 166.195 20.7668 178.738 20.7668C185.009 20.7668 189.19 16.7134 189.19 10.6334C189.19 4.55345 185.009 0.500122 178.738 0.500122C157.833 0.500122 137.974 12.6601 125.431 32.9267C110.798 57.2467 110.798 88.66 127.522 117.033C129.612 120.073 132.748 122.1 136.929 122.1Z"
              fill="#FF6363"/>
        <path d="M15.6806 90.6872C29.2686 85.6205 44.947 85.6205 59.5803 91.7005C76.3039 98.7938 89.892 110.954 95.1181 126.154C97.2086 130.207 100.344 132.234 104.525 132.234C105.57 132.234 106.616 132.234 108.706 131.22C113.932 129.194 117.068 123.114 114.977 118.047C107.661 98.7938 89.892 81.5672 67.9421 73.4605C48.0827 65.3539 26.1329 65.3539 7.31873 72.4472C2.09258 74.4739 0.00211442 80.5539 2.09258 85.6205C4.18304 90.6872 10.4544 92.7138 15.6806 90.6872Z"
              fill="#FF6363"/>
        <path d="M90.938 161.62C96.1641 163.646 102.435 160.606 104.526 155.54C106.616 150.473 103.481 144.393 98.2546 142.366C80.4856 136.286 51.2192 138.313 29.2694 155.54C8.36474 170.74 -2.08757 195.06 1.04812 224.446C1.04812 229.513 6.27427 233.566 11.5004 233.566H12.5457C17.7718 232.553 22.998 228.5 21.9527 222.42C18.817 195.06 31.3598 179.86 41.8121 171.753C57.4906 160.606 79.4404 157.566 90.938 161.62Z"
              fill="#FF6363"/>
        <path d="M74.2127 51.1669C85.758 51.1669 95.1173 42.0932 95.1173 30.9003C95.1173 19.7073 85.758 10.6337 74.2127 10.6337C62.6674 10.6337 53.3081 19.7073 53.3081 30.9003C53.3081 42.0932 62.6674 51.1669 74.2127 51.1669Z"
              fill="#52BB38"/>
        <path d="M32.4027 142.367C43.948 142.367 53.3073 133.293 53.3073 122.1C53.3073 110.907 43.948 101.833 32.4027 101.833C20.8574 101.833 11.498 110.907 11.498 122.1C11.498 133.293 20.8574 142.367 32.4027 142.367Z"
              fill="#52BB38"/>
    </g>
</svg>
