<svg width="305" height="315" viewBox="0 0 305 315" fill="none" xmlns="http://www.w3.org/2000/svg">
    <path d="M41.0338 311.484L233.567 221.594C236.607 220.549 238.634 217.413 239.647 214.278C240.66 211.142 239.647 206.961 236.607 204.871L106.9 71.0811C104.874 68.9907 100.82 67.9454 97.7804 67.9454C94.7404 68.9907 91.7004 71.0811 90.6871 74.2168L3.54056 272.811C1.51389 276.992 0.500565 281.172 0.500565 286.399C0.500565 295.806 5.56723 305.213 12.6606 310.439C20.7672 315.665 30.9005 315.665 41.0338 311.484ZM72.4471 168.288L143.38 241.454L84.6071 269.675L46.1005 229.956L72.4471 168.288ZM211.274 208.006L161.62 231.001L80.5538 147.383L102.847 96.1667L211.274 208.006ZM23.8072 292.67C20.7672 290.58 19.7539 286.399 21.7805 282.218L35.9672 249.816L63.3271 278.037L31.9138 292.67C28.8739 293.715 25.8338 293.715 23.8072 292.67Z"
          fill="#234D8B"/>
    <g id="surprise">
        <path d="M182.901 136.928C182.901 139.019 182.901 140.064 183.914 142.154C186.954 147.381 193.034 149.471 198.101 146.335C220.394 133.793 243.701 132.747 261.941 144.245C275.114 152.607 284.234 166.195 284.234 178.738C284.234 185.009 288.287 189.19 294.367 189.19C300.447 189.19 304.5 185.009 304.5 178.738C304.5 157.833 292.341 137.974 272.074 125.431C247.754 110.798 216.341 110.798 187.967 127.521C184.927 129.612 182.901 132.747 182.901 136.928Z"
              fill="#FF6363"/>
        <path d="M214.313 15.68C219.38 29.268 219.38 44.9464 213.3 59.5797C206.207 76.3033 194.047 89.8913 178.847 95.1175C174.793 97.208 172.767 100.344 172.767 104.525C172.767 105.57 172.767 106.615 173.78 108.705C175.807 113.932 181.887 117.067 186.953 114.977C206.207 107.66 223.433 89.8913 231.54 67.9415C239.647 48.0821 239.647 26.1323 232.553 7.31812C230.527 2.09197 224.447 0.00150406 219.38 2.09197C214.313 4.18243 212.287 10.4538 214.313 15.68Z"
              fill="#FF6363"/>
        <path d="M143.381 90.9376C141.354 96.1637 144.394 102.435 149.461 104.526C154.527 106.616 160.607 103.48 162.634 98.2542C168.714 80.4853 166.687 51.2188 149.461 29.269C134.261 8.36437 109.941 -2.08794 80.5542 1.04775C75.4875 1.04775 71.4342 6.27391 71.4342 11.5001V12.5453C72.4475 17.7714 76.5009 22.9976 82.5808 21.9524C109.941 18.8167 125.141 31.3594 133.247 41.8118C144.394 57.4902 147.434 79.4401 143.381 90.9376Z"
              fill="#FF6363"/>
        <path d="M253.834 74.2125C253.834 85.7578 262.908 95.1171 274.101 95.1171C285.294 95.1171 294.367 85.7578 294.367 74.2125C294.367 62.6672 285.294 53.3079 274.101 53.3079C262.908 53.3079 253.834 62.6672 253.834 74.2125Z"
              fill="#52BB38"/>
        <path d="M162.634 32.4025C162.634 43.9478 171.707 53.3071 182.9 53.3071C194.093 53.3071 203.167 43.9478 203.167 32.4025C203.167 20.8572 194.093 11.4979 182.9 11.4979C171.707 11.4979 162.634 20.8572 162.634 32.4025Z"
              fill="#52BB38"/>
    </g>

</svg>
